<svg width="260" height="56" viewBox="0 0 260 56" fill="none" xmlns="http://www.w3.org/2000/svg">
<path d="M61.0123 15.4466L54.6007 19.4984L56.5374 12.2147L50.6552 7.45003L58.2456 7.0104L61.0123 0L63.767 7.0104L71.3454 7.45003L65.4872 12.2147L67.4119 19.4984L61.0123 15.4466Z" fill="#E43D30"/>
<path d="M17.274 21.8748C7.75886 21.8748 0 29.5268 0 38.9374V56H17.274C21.9052 56 26.2478 54.2415 29.5077 51.0214C29.5077 51.0214 37.9643 42.6684 42.9805 37.7136C42.9805 44.4863 42.9805 56 42.9805 56H52.3272V21.8748H17.274ZM22.8916 44.4863C21.4 45.9597 19.4032 46.7795 17.274 46.7795C17.274 46.7795 13.5209 46.7795 9.34672 46.7795C9.34672 43.1318 9.34672 38.9374 9.34672 38.9374C9.34672 34.6123 12.9074 31.0953 17.274 31.0953C17.274 31.0953 27.0417 31.0953 36.4727 31.0953C31.4805 36.0263 22.8916 44.4863 22.8916 44.4863Z" fill="white"/>
<path d="M83.3747 32.1052C83.3747 32.0934 76.518 39.5196 76.518 39.5196C72.2476 44.1774 66.6179 46.7439 60.6514 46.7439H57.7404V55.9643H60.6394C69.2764 55.9643 77.36 52.3284 83.4228 45.722C83.4108 45.7339 90.2674 38.3195 90.2674 38.3195C94.5378 33.6618 100.18 31.0953 106.146 31.0953H109.057V21.8748H106.146C97.509 21.8748 89.4133 25.4988 83.3747 32.1052Z" fill="white"/>
<path d="M123.649 21.8748V12.7138H114.302V38.9374C114.302 48.348 122.061 56 131.588 56H157.631V46.7795H131.588C127.209 46.7795 123.649 43.2743 123.649 38.9374V31.0953H157.631V21.8748H123.649V21.8748Z" fill="white"/>
<path d="M180.571 21.8748C171.044 21.8748 163.285 29.5268 163.285 38.9374V56H172.632V38.9374C172.632 34.6123 176.18 31.0953 180.571 31.0953H205.375V21.8748H180.571V21.8748Z" fill="white"/>
<path d="M225.681 21.8748C216.153 21.8748 208.395 29.5268 208.395 38.9374C208.395 48.348 216.153 56 225.681 56H242.714C252.241 56 260 48.348 260 38.9374V21.8748H225.681ZM250.653 38.9374C250.653 43.2743 247.093 46.7795 242.714 46.7795H225.681C221.29 46.7795 217.729 43.2743 217.729 38.9374C217.729 34.6123 221.29 31.0953 225.681 31.0953C225.681 31.0953 243.893 31.0953 250.641 31.0953C250.653 34.7549 250.653 38.9374 250.653 38.9374Z" fill="white"/>
</svg>
