<svg width="63" height="45" viewBox="0 0 63 45" fill="none" xmlns="http://www.w3.org/2000/svg">
<path d="M17.274 10C7.75886 10 0 17.652 0 27.0626V44.1252H17.274C21.9052 44.1252 26.2478 42.3667 29.5077 39.1466C29.5077 39.1466 37.9643 30.7936 42.9805 25.8388C42.9805 32.6115 42.9805 44.1252 42.9805 44.1252H52.3272V10H17.274ZM22.8916 32.6115C21.4 34.0849 19.4032 34.9047 17.274 34.9047C17.274 34.9047 13.5209 34.9047 9.34672 34.9047C9.34672 31.257 9.34672 27.0626 9.34672 27.0626C9.34672 22.7375 12.9074 19.2205 17.274 19.2205C17.274 19.2205 27.0417 19.2205 36.4727 19.2205C31.4805 24.1515 22.8916 32.6115 22.8916 32.6115Z" fill="white"/>
<path d="M52.3571 15.4466L45.9455 19.4984L47.8822 12.2147L42 7.45003L49.5904 7.0104L52.3571 0L55.1118 7.0104L62.6902 7.45003L56.832 12.2147L58.7567 19.4984L52.3571 15.4466Z" fill="#E43D30"/>
</svg>
